<svg xmlns="http://www.w3.org/2000/svg" viewBox="0 0 512 512" role="img" aria-label="MatchData Fortaleza favicon">
  <defs>
    <linearGradient id="bg" x1="0" y1="0" x2="1" y2="1">
      <stop offset="0" stop-color="#ff0f1e"/>
      <stop offset="1" stop-color="#0c3da3"/>
    </linearGradient>
    <linearGradient id="barR" x1="0" y1="0" x2="0" y2="1">
      <stop offset="0" stop-color="#ff3e2f"/>
      <stop offset="1" stop-color="#ff0015"/>
    </linearGradient>
    <linearGradient id="barB" x1="0" y1="0" x2="0" y2="1">
      <stop offset="0" stop-color="#2f83e6"/>
      <stop offset="1" stop-color="#0e4bb7"/>
    </linearGradient>
  </defs>

  <rect x="16" y="16" width="480" height="480" rx="52" fill="#1650ba"/>
  <rect x="30" y="30" width="452" height="452" rx="44" fill="#f3f3f3"/>
  <rect x="52" y="52" width="408" height="408" rx="18" fill="url(#bg)"/>

  <rect x="72" y="236" width="68" height="188" fill="url(#barR)" opacity="0.95"/>
  <rect x="370" y="204" width="68" height="220" fill="url(#barB)" opacity="0.95"/>

  <path d="M52 244L126 204L214 160L294 194L364 158L460 194" fill="none" stroke="#ffffff" stroke-width="16" stroke-linecap="round" stroke-linejoin="round"/>
  <g fill="#2f61bb" stroke="#ffffff" stroke-width="10">
    <circle cx="126" cy="204" r="17"/>
    <circle cx="214" cy="160" r="17"/>
    <circle cx="294" cy="194" r="17"/>
  </g>

  <path d="M168 374V224h50l42 85 43-85h50v150h-40l-2-94-34 69h-34l-33-69-2 94z" fill="#ffffff"/>

  <g transform="translate(318 76)">
    <polygon points="0,0 100,0 116,18 116,44 56,116 0,44" fill="#ffffff" opacity="0.95"/>
    <polygon points="5,5 95,5 108,18 108,42 56,108 5,42" fill="#2f83e6"/>
    <rect x="8" y="8" width="92" height="28" fill="#ffffff"/>
    <text x="54" y="29" text-anchor="middle" font-family="Arial, Helvetica, sans-serif" font-size="11" font-weight="700" fill="#1b5ab6">FORTALEZA</text>
    <polygon points="8,42 54,42 54,102" fill="#1f5fae"/>
    <polygon points="100,42 54,42 54,102" fill="#ff1f2b"/>
    <polygon points="56,-10 61,2 74,2 63,9 67,21 56,13 45,21 49,9 38,2 51,2" fill="#ffda47"/>
  </g>
</svg>
