<svg xmlns="http://www.w3.org/2000/svg" viewBox="0 0 128 128" role="img" aria-label="MatchData Fortaleza favicon">
  <defs>
    <linearGradient id="blue" x1="0" y1="0" x2="1" y2="1">
      <stop offset="0%" stop-color="#1450c8" />
      <stop offset="100%" stop-color="#0d2f84" />
    </linearGradient>
    <linearGradient id="red" x1="0" y1="0" x2="1" y2="1">
      <stop offset="0%" stop-color="#ff1f1f" />
      <stop offset="100%" stop-color="#d30000" />
    </linearGradient>
  </defs>

  <rect x="4" y="4" width="120" height="120" rx="18" fill="url(#blue)" />
  <rect x="9" y="9" width="110" height="110" rx="14" fill="#ffffff" />
  <rect x="14" y="14" width="100" height="84" rx="10" fill="url(#red)" />

  <rect x="24" y="57" width="14" height="41" fill="#ff3218" />
  <rect x="46" y="42" width="14" height="56" fill="#f3f3f3" />
  <rect x="68" y="52" width="14" height="46" fill="#f3f3f3" />
  <rect x="80" y="36" width="26" height="62" fill="url(#blue)" />

  <polyline points="14,66 34,55 53,45 72,54 93,45 114,53" fill="none" stroke="#ffffff" stroke-width="5" stroke-linecap="round" stroke-linejoin="round" />
  <circle cx="34" cy="55" r="3.8" fill="#1450c8" stroke="#ffffff" stroke-width="2" />
  <circle cx="53" cy="45" r="3.8" fill="#1450c8" stroke="#ffffff" stroke-width="2" />
  <circle cx="72" cy="54" r="3.8" fill="#1450c8" stroke="#ffffff" stroke-width="2" />
  <circle cx="93" cy="45" r="3.8" fill="#1450c8" stroke="#ffffff" stroke-width="2" />

  <rect x="14" y="101" width="100" height="13" rx="2" fill="url(#blue)" />
  <text x="64" y="110" text-anchor="middle" font-family="Arial, Helvetica, sans-serif" font-size="9" font-weight="700" fill="#ffffff">MATCHDATA</text>
</svg>
